# xmcd CD database file
#
# Track frame offsets:
#	150
#	9310
#	26780
#	42617
#	53070
#	71700
#	95475
#	108305
#	125267
#	144237
#	153380
#	170505
#	194597
#	208760
#	214100
#	237820
#
# Disc length: 3457 seconds
#
# Revision: 2
# Processed by: cddbd v1.5.1PL0 Copyright (c) Steve Scherf et al.
# Submitted via: CDex 1.51
#
DISCID=e30d7f10
DTITLE=Alegria - Salsa Picante
DYEAR=1995
DGENRE=Salsa
TTITLE0=Chango I
TTITLE1=Bilonga
TTITLE2=Merengue Pa Los Ninos
TTITLE3=Chango II
TTITLE4=Guajira Saborosa
TTITLE5=Rumbero Suena El Tambor
TTITLE6=A Una Madre
TTITLE7=Madre Mambo
TTITLE8=Charanga Con Alegria
TTITLE9=Rumba De Guiro
TTITLE10=Pica Pica
TTITLE11=Pro Amor
TTITLE12=Rio Tuinucu
TTITLE13=Interlude
TTITLE14=El Canitnero Saboso
TTITLE15=Salsa Numero Cinco
EXTD=YEAR: 1995
EXTT0=
EXTT1=
EXTT2=
EXTT3=
EXTT4=
EXTT5=
EXTT6=
EXTT7=
EXTT8=
EXTT9=
EXTT10=
EXTT11=
EXTT12=
EXTT13=
EXTT14=
EXTT15=
PLAYORDER=
